<svg width="1425" height="1400" viewBox="0 0 1425 1400" fill="none" xmlns="http://www.w3.org/2000/svg">
<rect x="9" width="1400" height="1400" rx="177" fill="#328161"/>
<path d="M839.211 1056.91L796.785 1099.33L640.441 942.989C620.189 922.737 593.681 906.503 564.18 893.044C522.407 873.986 474.632 860.493 430.119 849.035C415.381 846.338 406.017 842.916 406.017 842.916C413.904 844.902 421.957 846.934 430.119 849.035C461.705 854.816 517.977 857.265 559.682 815.561C593.893 781.349 596.913 738.953 592.93 708.231C605.831 755.981 621.588 805.988 644.257 847.377C655.323 867.581 668.036 885.731 682.868 900.563L839.211 1056.91Z" fill="#C5D624"/>
<path d="M147.078 407.2C186.319 367.959 232.418 351.44 287.668 352.628C371.77 354.436 404.34 383.033 463.737 442.43C520.666 499.359 550.712 549.204 569.803 619.207C593.257 705.205 617.46 835.155 682.868 900.563C765.71 983.405 839.211 1056.91 839.211 1056.91L796.785 1099.33C796.785 1099.33 723.284 1025.83 640.441 942.989C575.034 877.582 444.376 854.086 358.378 830.632C288.375 811.54 238.53 781.494 181.602 724.566C122.205 665.169 93.607 632.599 91.7992 548.496C90.6117 493.246 108.221 446.057 147.074 407.204M406.017 842.916C406.017 842.916 498.517 876.726 559.682 815.561C620.847 754.396 582.309 667.068 582.309 667.068M494.396 867.412L679.536 935.415L605.7 751.158" stroke="#C5D624" stroke-width="27"/>
<rect width="76" height="198" transform="matrix(0.707107 -0.707107 -0.707107 -0.707107 782.421 1097.7)" fill="#C5D624"/>
<rect x="607.765" y="907.485" width="11" height="18" transform="rotate(135 607.765 907.485)" fill="#C5D624"/>
<rect x="655.849" y="863.645" width="11" height="18" transform="rotate(135 655.849 863.645)" fill="#C5D624"/>
<rect x="142.128" y="412.149" width="12" height="575" transform="rotate(-45 142.128 412.149)" fill="#C5D624"/>
<rect x="168.999" y="385.28" width="12" height="575" transform="rotate(-45 168.999 385.28)" fill="#C5D624"/>
<rect x="205.061" y="367.602" width="12" height="558" transform="rotate(-45 205.061 367.602)" fill="#C5D624"/>
<rect x="247.487" y="356.288" width="12" height="477" transform="rotate(-45 247.487 356.288)" fill="#C5D624"/>
<rect x="299.813" y="354.874" width="12" height="380" transform="rotate(-45 299.813 354.874)" fill="#C5D624"/>
<rect x="193.747" y="736.711" width="12" height="403" transform="rotate(-135 193.747 736.711)" fill="#C5D624"/>
<rect x="166.877" y="709.842" width="12" height="403" transform="rotate(-135 166.877 709.842)" fill="#C5D624"/>
<rect x="140.007" y="682.972" width="12" height="403" transform="rotate(-135 140.007 682.972)" fill="#C5D624"/>
<rect x="113.137" y="656.102" width="12" height="403" transform="rotate(-135 113.137 656.102)" fill="#C5D624"/>
<rect x="99.7021" y="615.796" width="12" height="351" transform="rotate(-135 99.7021 615.796)" fill="#C5D624"/>
<rect x="98.2878" y="563.47" width="12" height="288" transform="rotate(-135 98.2878 563.47)" fill="#C5D624"/>
<rect x="88.3883" y="519.63" width="12" height="240" transform="rotate(-135 88.3883 519.63)" fill="#C5D624"/>
<rect x="409.415" y="843.485" width="12" height="245" transform="rotate(-135 409.415 843.485)" fill="#C5D624"/>
<rect x="451.841" y="854.798" width="12" height="215" transform="rotate(-135 451.841 854.798)" fill="#C5D624"/>
<rect x="357.089" y="842.07" width="12" height="312" transform="rotate(-135 357.089 842.07)" fill="#C5D624"/>
<rect x="318.198" y="827.221" width="12" height="349" transform="rotate(-135 318.198 827.221)" fill="#C5D624"/>
<rect x="287.792" y="803.887" width="12" height="365" transform="rotate(-135 287.792 803.887)" fill="#C5D624"/>
<rect x="247.487" y="790.452" width="12" height="403" transform="rotate(-135 247.487 790.452)" fill="#C5D624"/>
<rect x="220.617" y="763.582" width="12" height="403" transform="rotate(-135 220.617 763.582)" fill="#C5D624"/>
<rect x="84.8528" y="569.834" width="12" height="386" transform="rotate(-45 84.8528 569.834)" fill="#C5D624"/>
<rect x="83.4386" y="514.68" width="12" height="477" transform="rotate(-45 83.4386 514.68)" fill="#C5D624"/>
<rect x="94.7523" y="472.254" width="12" height="558" transform="rotate(-45 94.7523 472.254)" fill="#C5D624"/>
<rect x="109.602" y="433.363" width="12" height="575" transform="rotate(-45 109.602 433.363)" fill="#C5D624"/>
<path d="M625.635 1101.21L583.208 1058.78L739.552 902.441C759.804 882.189 776.038 855.681 789.497 826.18C808.554 784.407 822.048 736.632 833.505 692.119C836.202 677.381 839.625 668.017 839.625 668.017C837.639 675.904 835.606 683.957 833.505 692.119C827.725 723.705 825.275 779.977 866.98 821.682C901.191 855.893 943.588 858.913 974.31 854.93C926.559 867.831 876.553 883.588 835.164 906.257C814.96 917.323 796.81 930.036 781.978 944.867L625.635 1101.21Z" fill="#C5D624"/>
<path d="M1275.34 409.078C1314.58 448.318 1331.1 494.417 1329.91 549.668C1328.11 633.77 1299.51 666.34 1240.11 725.737C1183.18 782.665 1133.34 812.711 1063.33 831.803C977.336 855.257 847.385 879.46 781.978 944.867C699.135 1027.71 625.635 1101.21 625.635 1101.21L583.208 1058.78C583.208 1058.78 656.709 985.284 739.552 902.441C804.959 837.034 828.455 706.376 851.909 620.378C871.001 550.375 901.046 500.53 957.975 443.602C1017.37 384.205 1049.94 355.607 1134.04 353.799C1189.29 352.612 1236.48 370.22 1275.34 409.074M839.625 668.017C839.625 668.017 805.815 760.517 866.98 821.682C928.145 882.847 1015.47 844.309 1015.47 844.309M815.129 756.396L747.125 941.536L931.383 867.7" stroke="#C5D624" stroke-width="27"/>
<rect width="76" height="198" transform="matrix(0.707107 0.707107 0.707107 -0.707107 584.844 1044.42)" fill="#C5D624"/>
<rect x="775.056" y="869.766" width="11" height="18" transform="rotate(-135 775.056 869.766)" fill="#C5D624"/>
<rect x="818.896" y="917.849" width="11" height="18" transform="rotate(-135 818.896 917.849)" fill="#C5D624"/>
<rect x="1270.39" y="404.128" width="12" height="575" transform="rotate(45 1270.39 404.128)" fill="#C5D624"/>
<rect x="1297.26" y="430.999" width="12" height="575" transform="rotate(45 1297.26 430.999)" fill="#C5D624"/>
<rect x="1314.94" y="467.061" width="12" height="558" transform="rotate(45 1314.94 467.061)" fill="#C5D624"/>
<rect x="1326.25" y="509.487" width="12" height="477" transform="rotate(45 1326.25 509.487)" fill="#C5D624"/>
<rect x="1327.67" y="561.813" width="12" height="380" transform="rotate(45 1327.67 561.813)" fill="#C5D624"/>
<rect x="945.829" y="455.748" width="12" height="403" transform="rotate(-45 945.829 455.748)" fill="#C5D624"/>
<rect x="972.699" y="428.877" width="12" height="403" transform="rotate(-45 972.699 428.877)" fill="#C5D624"/>
<rect x="999.569" y="402.007" width="12" height="403" transform="rotate(-45 999.569 402.007)" fill="#C5D624"/>
<rect x="1026.44" y="375.137" width="12" height="403" transform="rotate(-45 1026.44 375.137)" fill="#C5D624"/>
<rect x="1066.74" y="361.702" width="12" height="351" transform="rotate(-45 1066.74 361.702)" fill="#C5D624"/>
<rect x="1119.07" y="360.288" width="12" height="288" transform="rotate(-45 1119.07 360.288)" fill="#C5D624"/>
<rect x="1162.91" y="350.388" width="12" height="240" transform="rotate(-45 1162.91 350.388)" fill="#C5D624"/>
<rect x="839.056" y="671.415" width="12" height="245" transform="rotate(-45 839.056 671.415)" fill="#C5D624"/>
<rect x="827.742" y="713.841" width="12" height="215" transform="rotate(-45 827.742 713.841)" fill="#C5D624"/>
<rect x="840.47" y="619.089" width="12" height="312" transform="rotate(-45 840.47 619.089)" fill="#C5D624"/>
<rect x="855.319" y="580.198" width="12" height="349" transform="rotate(-45 855.319 580.198)" fill="#C5D624"/>
<rect x="878.654" y="549.792" width="12" height="365" transform="rotate(-45 878.654 549.792)" fill="#C5D624"/>
<rect x="892.089" y="509.488" width="12" height="403" transform="rotate(-45 892.089 509.488)" fill="#C5D624"/>
<rect x="918.959" y="482.618" width="12" height="403" transform="rotate(-45 918.959 482.618)" fill="#C5D624"/>
<rect x="1112.71" y="346.853" width="12" height="386" transform="rotate(45 1112.71 346.853)" fill="#C5D624"/>
<rect x="1167.86" y="345.438" width="12" height="477" transform="rotate(45 1167.86 345.438)" fill="#C5D624"/>
<rect x="1210.29" y="356.752" width="12" height="558" transform="rotate(45 1210.29 356.752)" fill="#C5D624"/>
<rect x="1249.18" y="371.602" width="12" height="575" transform="rotate(45 1249.18 371.602)" fill="#C5D624"/>
<rect x="780.535" y="552.468" width="199" height="199" rx="99.5" transform="rotate(-165.319 780.535 552.468)" fill="#C5D624" stroke="#C5D624"/>
<path d="M598.5 437.001C598.5 437.001 640.277 523.74 691.5 490C742.723 456.26 674.441 406.101 729.766 373.376C784.5 341 821 418.001 821 418.001" stroke="#328161" stroke-width="17" stroke-linecap="square"/>
</svg>
